# xmcd
#
# Track frame offsets: 
#        182
#        19722
#        40150
#        53780
#        70832
#        96140
#        108042
#        127365
#        140472
#        157620
#        173135
#        189930
#        205855
#        220915
#        238580
#        252332
#        271712
#        285440
#
# Disc length: 4058 seconds
#
# Revision: 1
# Processed by: cddbd v1.5.2PL0 Copyright (c) Steve Scherf et al.
# Submitted via: ExactAudioCopy v0.95b4
#
DISCID=f40fd812
DTITLE=Various Artist - Havana Cafe
DYEAR=2000
DGENRE=Cuban Music
TTITLE0=Chan Chan [Compay Segundo]
TTITLE1=Compositor Confundido [Ibrahim Ferrer]
TTITLE2=Como Siento Yo [Ruben Gonzales]
TTITLE3=Al Vaiven De Mi Carreta [Eliades Ochoa Y El Cuarteto Patria]
TTITLE4=El Charlatan [Orquesta Aragon]
TTITLE5=Como La Mariposa [Leyanis Lopez]
TTITLE6=Sabroso [Compay Segundo]
TTITLE7=Revive La Ilusion [Septeto Habanero]
TTITLE8=Campina [Afro-Cuban Jazz Project]
TTITLE9=Ay Candela [Ibrahim Ferrer Con Los Bocucos]
TTITLE10=El Misterio De Tu Ojos [Zaida Reyte and Alfredo Alonso]
TTITLE11=A La Orilla Del Mar [Trio Mira Ores]
TTITLE12=A Una Coqueta [Floricelda and Candida Faez]
TTITLE13=Sublime Ilusion [Lucia Lago and Lusson Bueno]
TTITLE14=Ella Y Yo [Mercedes and Esperanza Ferrin]
TTITLE15=Flor De Venganza [Floricelda and Candida Faez]
TTITLE16=Ray Joaquin [Mongo Santamaria]
TTITLE17=Este Vacilon [La Familia Valera Miranda]
EXTD=
EXTT0=
EXTT1=
EXTT2=
EXTT3=
EXTT4=
EXTT5=
EXTT6=
EXTT7=
EXTT8=
EXTT9=
EXTT10=
EXTT11=
EXTT12=
EXTT13=
EXTT14=
EXTT15=
EXTT16=
EXTT17=
PLAYORDER=
